Coordinates
version=1
nRows=14
nColumns=40
inDegrees=yes

Units are S.I. units (second, meters, Newtons, ...)
Angles are in degrees.

endheader
time	pelvis_tilt	pelvis_list	pelvis_rotation	pelvis_tx	pelvis_ty	pelvis_tz	hip_flexion_r	hip_adduction_r	hip_rotation_r	knee_angle_r	knee_angle_r_beta	ankle_angle_r	subtalar_angle_r	mtp_angle_r	hip_flexion_l	hip_adduction_l	hip_rotation_l	knee_angle_l	knee_angle_l_beta	ankle_angle_l	subtalar_angle_l	mtp_angle_l	lumbar_extension	lumbar_bending	lumbar_rotation	arm_flex_r	arm_add_r	arm_rot_r	elbow_flex_r	pro_sup_r	wrist_flex_r	wrist_dev_r	arm_flex_l	arm_add_l	arm_rot_l	elbow_flex_l	pro_sup_l	wrist_flex_l	wrist_dev_l
     22.86750000	     -2.91509485	     -4.86019561	      7.40061271	      1.12739273	      0.93654616	      0.48223465	      5.26018823	      3.94308232	    -21.13885076	     12.05845192	     12.05845192	     11.59804643	      4.54389051	     -2.93337799	     34.33206986	    -12.22034213	     -1.84690047	     47.14420066	     47.14420066	      9.18865707	    -17.24490415	     11.86749912	     -9.24530711	      6.98830609	      5.18781112	     31.23507794	    -20.74796687	     -2.78852462	     48.95468501	     45.92279387	      0.00000000	      0.00000000	      1.48823145	     -5.76274526	     -0.31358477	     25.72337819	     46.67304481	      0.00000000	      0.00000000
     22.87900000	     -3.14587215	     -4.92327721	      7.35938150	      1.12605261	      0.93526937	      0.48221730	      4.76274510	      4.15519888	    -20.94223058	     11.66355046	     11.66355046	     12.05726241	      4.60040025	     -3.05918208	     34.79519033	    -11.94829437	     -2.04444444	     43.45749708	     43.45749708	      9.04051205	    -16.48184749	     12.36623621	     -9.08403482	      7.09624775	      5.44119622	     33.16517072	    -20.98986995	     -3.04905525	     50.13952430	     45.90039560	      0.00000000	      0.00000000	      0.09211048	     -5.90509138	     -0.35908354	     24.90887998	     46.65277585	      0.00000000	      0.00000000
     22.89050000	     -3.13699905	     -5.00578386	      7.38280686	      1.12506914	      0.93428361	      0.48215200	      3.73009765	      4.52507210	    -20.80682572	     10.74463759	     10.74463759	     12.25683754	      4.81707701	     -3.39995420	     34.72105861	    -11.61305887	     -2.05564312	     39.31132654	     39.31132654	      8.08771117	    -16.03408893	     11.15313039	     -9.21536722	      7.19337445	      5.22145673	     34.46160856	    -20.59920146	     -4.00741747	     53.77568648	     45.78941686	      0.00000000	      0.00000000	     -0.73613924	     -5.99912206	     -0.97616195	     22.02944603	     46.73773886	      0.00000000	      0.00000000
     22.90200000	     -3.27508641	     -5.08547377	      7.35066003	      1.12399633	      0.93283429	      0.48198933	      3.00029583	      4.79918393	    -20.62025534	     10.13154334	     10.13154334	     12.67873982	      4.98574771	     -3.51142305	     34.82117738	    -11.30326426	     -2.17028103	     35.34448683	     35.34448683	      7.89297284	    -14.88911801	     11.61742994	     -9.16914025	      7.27966612	      5.10629142	     36.31650051	    -20.39370004	     -4.20753436	     55.27513909	     45.75070698	      0.00000000	      0.00000000	     -2.20287029	     -6.26986029	     -1.05648942	     21.19050879	     46.72249264	      0.00000000	      0.00000000
     22.91350000	     -3.40021594	     -5.16246407	      7.32460293	      1.12307300	      0.93131049	      0.48170605	      2.18092346	      5.08340016	    -20.50194213	      9.39861930	      9.39861930	     13.08601649	      5.22216271	     -3.64825662	     34.81304062	    -11.01365213	     -2.42578049	     31.37394907	     31.37394907	      7.56344278	    -13.46140914	     11.98597552	     -9.10574285	      7.38463874	      4.92500530	     38.03289222	    -20.06733754	     -4.40109448	     57.00255824	     45.70336278	      0.00000000	      0.00000000	     -3.69156582	     -6.55147659	     -1.12925173	     20.39971716	     46.70656485	      0.00000000	      0.00000000
     22.92500000	     -3.63386065	     -5.38412216	      7.29420306	      1.12215038	      0.92934618	      0.48129698	      1.56504365	      5.46217002	    -20.35508233	      8.80730825	      8.80730825	     13.48500927	      5.49586620	     -3.83031894	     34.97999616	    -10.80973251	     -2.52826360	     27.67489130	     27.67489130	      7.36281690	    -11.84253836	     12.29391931	     -8.89141225	      7.63916607	      4.97052895	     39.64265387	    -20.01417497	     -4.60884250	     58.48951979	     45.66596086	      0.00000000	      0.00000000	     -5.01115272	     -6.73352305	     -1.19217920	     19.87378749	     46.69103917	      0.00000000	      0.00000000
     22.93650000	     -3.65556932	     -5.61397234	      7.30331171	      1.12156205	      0.92765920	      0.48074427	      0.48189104	      5.94425859	    -20.33085251	      7.77783447	      7.77783447	     13.69119507	      6.06869338	     -4.10496546	     34.88317208	    -10.67894791	     -2.89063619	     24.20974501	     24.20974501	      6.89504072	     -9.98728298	     11.95935746	     -9.00269869	      7.96337104	      4.65895954	     40.93489524	    -19.57101361	     -4.95737472	     61.32697094	     45.58297624	      0.00000000	      0.00000000	     -6.64688790	     -6.99838541	     -1.34404567	     19.65001006	     46.67910183	      0.00000000	      0.00000000
     22.94800000	     -3.78067315	     -5.79918097	      7.28681983	      1.12101600	      0.92581585	      0.48005333	     -0.36440211	      6.29704763	    -20.26794945	      7.02840020	      7.02840020	     13.96247150	      6.49812355	     -4.44248028	     34.87752670	    -10.48399587	     -3.40523795	     21.09797499	     21.09797499	      6.38469776	     -8.13833633	     11.71889300	     -8.94122726	      8.18588459	      4.73509457	     41.94447998	    -19.53607839	     -5.33213871	     63.72790120	     45.51648869	      0.00000000	      0.00000000	     -8.11247477	     -7.25784350	     -1.48728355	     19.82344608	     46.66089051	      0.00000000	      0.00000000
     22.95950000	     -3.98754697	     -5.88126781	      7.24971744	      1.12051957	      0.92398826	      0.47910144	     -1.02492588	      6.45899650	    -20.10475767	      6.52607348	      6.52607348	     14.32708319	      6.77356400	     -4.60978283	     34.90364054	    -10.13087637	     -3.96086762	     18.39142171	     18.39142171	      6.05482789	     -6.53509485	     12.04875680	     -8.74226039	      8.29688074	      4.79259761	     43.01536503	    -19.47410267	     -5.49320892	     65.02315546	     45.48268569	      0.00000000	      0.00000000	     -9.35111312	     -7.49903753	     -1.55017761	     19.63624121	     46.64127787	      0.00000000	      0.00000000
     22.97100000	     -4.10437704	     -6.01800583	      7.25386687	      1.12021048	      0.92232253	      0.47804567	     -1.86436593	      6.71579603	    -20.10324604	      5.85524107	      5.85524107	     14.59497422	      7.22033399	     -4.73317764	     34.98775719	     -9.86482281	     -4.71456410	     16.44273038	     16.44273038	      5.70765284	     -5.01712515	     12.12343044	     -8.67674804	      8.44354925	      4.63273435	     44.03604275	    -19.26386337	     -5.71172704	     66.95802181	     45.42929476	      0.00000000	      0.00000000	    -10.74581111	     -7.68405908	     -1.63406516	     19.77095322	     46.61469510	      0.00000000	      0.00000000
     22.98250000	     -4.26482401	     -6.19312422	      7.26312300	      1.11996880	      0.92065482	      0.47680462	     -2.62133677	      6.96915613	    -20.22256867	      5.26321410	      5.26321410	     14.83243512	      7.84623573	     -4.82759268	     35.24411243	     -9.64921717	     -5.62361816	     15.24579541	     15.24579541	      5.29549383	     -3.71543420	     11.60478149	     -8.59603073	      8.64226792	      4.70021913	     44.42131701	    -19.29949810	     -6.16458582	     69.80758127	     45.35280426	      0.00000000	      0.00000000	    -12.25430012	     -7.91999369	     -1.73878817	     20.88426412	     46.56453176	      0.00000000	      0.00000000
     22.99400000	     -4.49737805	     -6.20405789	      7.23382552	      1.11975778	      0.91919403	      0.47531225	     -3.17574422	      6.96641497	    -20.15283521	      4.96635423	      4.96635423	     15.13086056	      8.06783644	     -4.83652053	     35.39265177	     -9.20233986	     -6.34901286	     14.37807044	     14.37807044	      4.96328357	     -3.23562696	     11.64731024	     -8.37219266	      8.65854131	      4.64968840	     45.16902819	    -19.19130791	     -6.29957400	     70.95817274	     45.32321881	      0.00000000	      0.00000000	    -13.27054832	     -8.04082786	     -1.74558523	     20.76576491	     46.53749774	      0.00000000	      0.00000000
     23.00550000	     -4.67376978	     -6.23211604	      7.20393147	      1.11978940	      0.91783760	      0.47365580	     -3.80573474	      6.95822309	    -20.33939506	      4.68905364	      4.68905364	     15.54676366	      8.74672026	     -4.49485374	     35.59768460	     -8.83964476	     -7.15545083	     14.31096081	     14.31096081	      4.48325285	     -3.06878084	     10.62450791	     -8.26884228	      8.68033436	      4.79297614	     45.13774048	    -19.34571199	     -6.80357406	     73.72941487	     45.25533319	      0.00000000	      0.00000000	    -14.50602590	     -8.24785829	     -1.73658497	     21.71808085	     46.47513574	      0.00000000	      0.00000000
     23.01700000	     -4.90762490	     -6.19888099	      7.13379586	      1.11987198	      0.91661104	      0.47183383	     -4.30963679	      6.84202109	    -20.33243737	      4.54400394	      4.54400394	     15.87520642	      9.05154632	     -4.32081800	     35.74937847	     -8.39446058	     -7.69876118	     14.60886166	     14.60886166	      4.13923483	     -3.60905880	     10.29356976	     -8.04237827	      8.65371025	      4.58518196	     45.53371924	    -19.07964272	     -6.92805976	     75.08444156	     45.21966999	      0.00000000	      0.00000000	    -15.39985988	     -8.27181725	     -1.67447214	     21.56638857	     46.43723293	      0.00000000	      0.00000000
